# Blender v2.79 (sub 0) OBJ File: 'trees2.blend'
# www.blender.org
mtllib cloud.mtl
o Icosphere_Icosphere.003
v -1.624401 2.001274 1.401106
v -1.385542 3.225802 3.017404
v -2.236661 3.225799 2.404289
v -1.973276 3.063013 1.328124
v -1.300690 3.696285 2.397403
v -1.477630 1.707733 2.397403
v -1.392778 2.178216 3.017404
v -0.541659 2.178219 2.404289
v -0.970253 1.744360 2.125113
v -2.238899 2.178218 2.397403
v -2.094143 1.970608 1.878885
v -0.861752 2.178218 1.405365
v -0.345271 2.755599 2.125113
v -1.066580 2.755599 3.117911
v -1.976946 2.702009 2.934130
v -2.433049 2.648420 2.125113
v -1.066580 2.755599 1.132315
v -0.539422 3.225800 1.852823
v -0.684178 3.433411 2.371341
v -1.808068 3.659658 2.125113
v -1.153919 3.402744 1.401106
v -1.629862 2.490328 1.957258
v -2.222469 2.244615 1.904474
v -2.667283 2.265867 1.380829
v -2.054946 2.372590 0.735471
v -2.181189 3.518609 1.287207
v -1.923469 1.984247 1.287207
v -1.303301 2.554964 1.289961
v -2.285638 2.712668 2.098879
v -2.807332 2.712668 1.380829
v -2.433782 3.130265 1.901393
v -2.695896 3.009431 1.004060
v -1.911517 2.979268 0.644486
v -1.882189 3.258241 1.904474
v -1.437375 3.236989 1.380829
v -1.197359 2.291928 2.857666
v 0.105752 3.095184 3.275234
v -0.477968 3.455939 2.857667
v -0.595360 2.173712 3.681252
v 0.104036 2.291929 3.280514
v -0.224597 1.959258 3.066450
v -1.086364 2.132738 3.255251
v -0.613640 1.931174 2.857666
v 0.254621 2.734647 3.066450
v -0.298458 2.734648 3.827699
v -0.993688 2.970364 3.677558
v -0.791982 2.566953 2.308794
v -1.346228 2.652465 3.066450
v -0.097920 2.416749 2.455342
v -1.195644 3.095184 2.852386
v -0.543029 3.095186 2.382267
v -0.365428 3.230860 3.621598
v -0.005243 3.254374 2.877650
v -0.867010 3.427854 3.066450
vn -0.1933 -0.9485 -0.2510
vn -0.0764 -0.9594 -0.2714
vn -0.6779 -0.2698 -0.6838
vn 0.8090 0.0090 0.5878
vn -0.1941 -0.0608 0.9791
vn -0.2571 -0.1501 -0.9547
vn 0.8090 0.0090 -0.5878
vn 0.3356 0.7277 0.5982
vn -0.3933 0.7398 0.5459
vn -0.7666 0.5801 -0.2754
vn 0.3759 0.9024 -0.2105
vn 0.4231 0.8757 -0.2325
vn 0.0764 0.9594 -0.2714
vn -0.2819 0.7952 -0.5369
vn -0.3439 0.7701 0.5373
vn 0.8090 -0.0063 -0.5878
vn 0.6170 0.3714 -0.6938
vn -0.0728 0.3742 -0.9245
vn -0.8617 0.4262 -0.2754
vn -0.5162 0.4689 0.7166
vn -0.2014 0.0721 0.9768
vn 0.5054 0.4941 0.7074
vn 0.7947 0.1876 0.5773
vn 0.9031 0.4212 0.0835
vn 0.0972 -0.3971 -0.9126
vn -0.8019 -0.1959 -0.5645
vn -0.9031 -0.4212 -0.0835
vn -0.8712 0.0608 0.4871
vn -0.8668 -0.0721 0.4934
vn -0.5220 -0.4689 0.7124
vn 0.5287 -0.4264 0.7339
vn 0.8614 -0.4264 -0.2760
vn 0.2004 -0.8521 -0.4834
vn -0.5161 -0.8351 0.1903
vn -0.4272 -0.6912 0.5829
vn 0.7639 -0.5971 -0.2448
vn 0.3439 -0.7701 0.5373
vn 0.3933 -0.7398 0.5459
vn 0.6548 -0.7128 0.2514
vn -0.3185 -0.9188 0.2333
vn 0.0728 -0.3742 0.9245
vn -0.6444 -0.3652 -0.6718
vn 0.6133 -0.2570 -0.7469
vn -0.4176 -0.0374 -0.9079
vn 0.3604 0.7835 -0.5063
vn -0.2876 0.6708 -0.6836
vn -0.7314 0.6707 0.1233
vn -0.2029 0.8632 0.4624
vn 0.3185 0.9188 0.2333
vn 0.7793 0.2308 -0.5826
vn -0.8308 0.5295 0.1714
vn -0.0972 0.3971 0.9126
vn 0.7364 0.2842 0.6140
vn 0.8878 0.1152 0.4456
vn -0.8474 -0.2656 -0.4598
vn -0.8090 -0.0090 0.5878
vn -0.7842 -0.2458 0.5698
vn -0.7219 -0.3463 0.5992
vn 0.2571 0.1501 0.9547
vn 0.5617 -0.6076 -0.5615
vn -0.3631 -0.8005 -0.4769
vn 0.2964 -0.8201 0.4895
vn -0.0830 -0.9555 0.2832
vn -0.1658 -0.9450 0.2820
vn -0.9031 -0.4212 0.0835
vn -0.2482 -0.1196 0.9613
vn 0.3356 0.7277 -0.5982
vn -0.3439 0.7701 -0.5373
vn -0.3933 0.7398 -0.5459
vn -0.7666 0.5801 0.2754
vn 0.0764 0.9594 0.2714
vn -0.2819 0.7952 0.5369
vn 0.3759 0.9024 0.2105
vn 0.4231 0.8757 0.2325
vn 0.9031 0.4212 -0.0835
vn 0.8019 0.1959 -0.5645
vn 0.5932 0.3091 -0.7433
vn -0.5449 0.3620 -0.7564
vn -0.8617 0.4262 0.2754
vn -0.0728 0.3742 0.9245
vn 0.6170 0.3714 0.6938
vn 0.8090 -0.0063 0.5878
vn 0.2137 0.0351 -0.9763
vn -0.8076 -0.0104 -0.5896
vn -0.8066 0.0092 -0.5911
vn -0.8019 -0.1959 0.5645
vn -0.6103 -0.3018 0.7324
vn 0.4992 -0.4565 0.7365
vn 0.8617 -0.4262 -0.2754
vn 0.3353 -0.7862 -0.5191
vn 0.0197 -0.6502 -0.7595
vn -0.4076 -0.6596 -0.6315
vn -0.5161 -0.8351 -0.1903
vn 0.7666 -0.5801 -0.2754
vn 0.4211 -0.7470 0.5145
usemtl Material.007
s off
f 6//1 11//1 1//1
f 6//2 1//2 9//2
f 1//3 11//3 4//3
f 8//4 13//4 14//4
f 7//5 14//5 15//5
f 1//6 4//6 17//6
f 12//7 17//7 13//7
f 2//8 19//8 5//8
f 3//9 2//9 20//9
f 4//10 3//10 20//10
f 19//11 21//11 5//11
f 19//12 18//12 21//12
f 21//13 20//13 5//13
f 21//14 4//14 20//14
f 20//15 2//15 5//15
f 13//16 17//16 18//16
f 17//17 21//17 18//17
f 17//18 4//18 21//18
f 16//19 3//19 4//19
f 15//20 2//20 3//20
f 15//21 14//21 2//21
f 14//22 19//22 2//22
f 14//23 13//23 19//23
f 13//24 18//24 19//24
f 12//25 1//25 17//25
f 4//26 11//26 16//26
f 11//27 10//27 16//27
f 16//28 15//28 3//28
f 16//29 10//29 15//29
f 10//30 7//30 15//30
f 7//31 8//31 14//31
f 8//32 12//32 13//32
f 9//33 1//33 12//33
f 11//34 6//34 10//34
f 6//35 7//35 10//35
f 8//36 9//36 12//36
f 6//37 9//37 7//37
f 9//38 8//38 7//38
f 22//39 27//39 28//39
f 27//40 23//40 24//40
f 23//41 22//41 29//41
f 25//42 24//42 32//42
f 28//43 25//43 33//43
f 25//44 32//44 33//44
f 35//45 33//45 26//45
f 33//46 32//46 26//46
f 32//47 31//47 26//47
f 26//48 31//48 34//48
f 34//49 35//49 26//49
f 28//50 33//50 35//50
f 30//51 31//51 32//51
f 29//52 34//52 31//52
f 22//53 35//53 34//53
f 22//54 28//54 35//54
f 32//55 24//55 30//55
f 30//56 29//56 31//56
f 30//57 24//57 29//57
f 24//58 23//58 29//58
f 29//59 22//59 34//59
f 27//60 25//60 28//60
f 27//61 24//61 25//61
f 23//62 27//62 22//62
f 43//63 41//63 39//63
f 43//64 39//64 42//64
f 36//65 42//65 48//65
f 40//4 44//4 45//4
f 39//66 45//66 46//66
f 53//67 51//67 38//67
f 38//68 51//68 54//68
f 51//69 50//69 54//69
f 50//70 46//70 54//70
f 54//71 52//71 38//71
f 54//72 46//72 52//72
f 52//73 53//73 38//73
f 52//74 37//74 53//74
f 44//75 53//75 37//75
f 44//76 49//76 53//76
f 49//77 51//77 53//77
f 47//78 50//78 51//78
f 48//79 46//79 50//79
f 45//80 52//80 46//80
f 45//81 37//81 52//81
f 45//82 44//82 37//82
f 49//83 47//83 51//83
f 47//84 48//84 50//84
f 47//85 36//85 48//85
f 48//86 42//86 46//86
f 42//87 39//87 46//87
f 39//88 40//88 45//88
f 40//89 49//89 44//89
f 41//90 43//90 49//90
f 43//91 47//91 49//91
f 43//92 36//92 47//92
f 43//93 42//93 36//93
f 40//94 41//94 49//94
f 41//95 40//95 39//95
o Cylinder_Cylinder.004
v -4.829144 2.299686 -1.353347
v -4.829144 7.205531 -1.544548
v -5.318743 2.299686 -1.636017
v -5.153158 7.205531 -1.731618
v -5.318743 2.299686 -2.201358
v -5.153158 7.205531 -2.105757
v -4.829144 2.299686 -2.484028
v -4.829144 7.205531 -2.292826
v -4.339544 2.299686 -2.201358
v -4.505129 7.205531 -2.105757
v -4.339544 2.299686 -1.636017
v -4.505129 7.205531 -1.731618
v -4.674986 6.961896 -1.553120
v -2.807686 8.819489 -0.870187
v -4.871331 7.194967 -1.625917
v -2.937625 8.973734 -0.918364
v -4.869444 7.317034 -1.914481
v -2.936377 9.054517 -1.109334
v -4.671213 7.206029 -2.130248
v -2.805189 8.981054 -1.252127
v -4.474868 6.972958 -2.057450
v -2.675249 8.826809 -1.203950
v -4.476755 6.850891 -1.768886
v -2.676498 8.746026 -1.012980
v -4.849264 7.058841 -1.657402
v -6.375979 9.219172 -1.928219
v -5.064566 6.895919 -1.801845
v -6.518465 9.111351 -2.023811
v -5.061281 6.874628 -2.107293
v -6.516291 9.097261 -2.225955
v -4.842694 7.016261 -2.268298
v -6.371632 9.190992 -2.332507
v -4.627392 7.179183 -2.123855
v -6.229146 9.298813 -2.236915
v -4.630677 7.200474 -1.818407
v -6.231320 9.312902 -2.034771
v -3.608883 8.947423 -2.319863
v -2.991122 10.710337 -2.357345
v -1.744782 11.170152 -1.218633
v -3.715832 8.332014 -0.685207
v -3.127134 8.818681 0.374271
v -1.999460 8.002849 -0.686405
v -3.006627 7.886722 -1.159838
v -4.244755 9.726624 -0.620136
v -4.262813 9.346184 -1.504147
v -2.420136 8.406567 -2.336341
v -1.152060 8.588383 -1.123554
v -2.109060 9.242498 0.563876
v -3.403559 10.911198 -0.147446
v -4.022956 10.566514 -1.034802
v -1.992210 9.547519 -2.729869
v -0.930261 9.428274 -1.538220
v -1.815197 10.344480 0.297503
v -0.912203 9.808713 -0.654209
v -6.741993 8.320845 -2.984725
v -7.185254 9.669828 -3.077451
v -6.669477 10.558855 -2.229308
v -6.555515 7.947889 -1.718889
v -6.447707 8.545656 -0.931152
v -5.366325 8.545661 -1.710140
v -5.910871 7.994425 -2.064844
v -7.522738 8.545660 -1.718889
v -7.338820 8.281881 -2.377687
v -5.773016 8.545659 -2.979314
v -5.116806 9.279245 -2.064844
v -6.033258 9.279245 -0.803454
v -7.573656 9.664389 -1.402980
v -7.769414 9.143069 -2.064844
v -6.035193 9.420939 -3.320282
v -5.363482 9.876656 -2.410799
v -6.360996 10.072540 -1.046117
v -5.547401 10.140433 -1.752001
vn -0.4997 0.0337 0.8655
vn -0.9994 0.0337 0.0000
vn -0.4997 0.0337 -0.8655
vn 0.4997 0.0337 -0.8655
vn 0.0000 1.0000 0.0000
vn 0.9994 0.0337 0.0000
vn 0.4997 0.0337 0.8655
vn 0.0000 -1.0000 0.0000
vn -0.3454 0.0022 0.9385
vn -0.7035 0.6562 0.2730
vn -0.3350 0.6766 -0.6558
vn 0.3917 0.0429 -0.9191
vn 0.6865 0.6680 0.2871
vn 0.7498 -0.6111 -0.2536
vn 0.3813 -0.6315 0.6752
vn -0.6865 -0.6680 -0.2871
vn -0.4375 -0.1993 0.8769
vn -0.8370 -0.5464 0.0291
vn -0.4189 -0.3196 -0.8499
vn 0.3987 0.2543 -0.8811
vn -0.5750 0.8157 -0.0630
vn 0.7982 0.6014 -0.0333
vn 0.3801 0.3747 0.8457
vn 0.5750 -0.8157 0.0630
vn -0.7307 -0.6217 -0.2819
vn -0.6446 -0.7006 -0.3059
vn -0.7008 0.2312 -0.6748
vn 0.6460 -0.5130 0.5652
vn -0.2597 0.2012 0.9445
vn -0.2711 0.0746 -0.9597
vn 0.6490 -0.4540 -0.6105
vn 0.1737 0.8615 0.4772
vn -0.2352 0.9630 -0.1314
vn 0.4199 0.5834 -0.6952
vn 0.8704 0.4455 -0.2095
vn 0.6948 0.4306 -0.5761
vn 0.7247 0.5905 0.3552
vn 0.6350 -0.4703 -0.6129
vn -0.3155 0.9379 -0.1441
vn -0.1677 0.2736 0.9471
vn 0.7186 -0.0236 0.6951
vn 0.7435 -0.3623 0.5621
vn 0.9726 -0.2199 0.0748
vn -0.1388 -0.2760 -0.9511
vn -0.7543 0.3595 -0.5494
vn -0.9726 0.2199 -0.0748
vn -0.8137 0.4156 0.4065
vn -0.6059 0.1162 0.7870
vn 0.1582 -0.6942 0.7022
vn 0.4237 -0.8490 -0.3158
vn -0.3594 -0.7741 -0.5212
vn -0.9184 -0.3563 0.1721
vn -0.7608 -0.3150 0.5674
vn 0.2424 -0.9263 -0.2885
vn -0.1973 -0.8447 0.4976
vn -0.1397 -0.8511 0.5061
vn -0.1933 -0.9485 -0.2510
vn -0.0764 -0.9594 -0.2714
vn -0.6779 -0.2698 -0.6838
vn 0.8090 0.0090 0.5878
vn -0.3543 0.0375 0.9344
vn -0.2340 -0.1430 -0.9617
vn 0.8077 0.0123 -0.5895
vn -0.3997 0.8065 0.4357
vn -0.7690 0.6144 -0.1764
vn -0.0030 0.6912 -0.7227
vn 0.4249 0.8751 -0.2318
vn 0.3047 0.7422 -0.5969
vn 0.2056 0.9228 0.3257
vn 0.8066 -0.0092 -0.5911
vn -0.8170 0.5452 -0.1877
vn -0.3255 0.1510 0.9334
vn 0.5651 0.4458 0.6942
vn 0.7947 0.1876 0.5773
vn 0.9031 0.4212 0.0835
vn 0.0841 -0.3397 -0.9368
vn -0.8019 -0.1959 -0.5645
vn -0.9031 -0.4212 -0.0835
vn -0.9093 -0.1509 0.3878
vn -0.5728 -0.2468 0.7817
vn 0.5287 -0.4264 0.7339
vn 0.8614 -0.4264 -0.2760
vn 0.2004 -0.8521 -0.4834
vn -0.5161 -0.8351 0.1903
vn -0.4272 -0.6912 0.5829
vn 0.7639 -0.5971 -0.2448
vn 0.3439 -0.7701 0.5373
vn 0.3933 -0.7398 0.5459
usemtl Material.006
s off
f 55//96 56//96 58//96 57//96
f 57//97 58//97 60//97 59//97
f 59//98 60//98 62//98 61//98
f 61//99 62//99 64//99 63//99
f 58//100 56//100 66//100 64//100 62//100 60//100
f 63//101 64//101 66//101 65//101
f 65//102 66//102 56//102 55//102
f 55//103 57//103 59//103 61//103 63//103 65//103
f 67//104 68//104 70//104 69//104
f 69//105 70//105 72//105 71//105
f 71//106 72//106 74//106 73//106
f 73//107 74//107 76//107 75//107
f 70//108 68//108 78//108 76//108 74//108 72//108
f 75//109 76//109 78//109 77//109
f 77//110 78//110 68//110 67//110
f 67//111 69//111 71//111 73//111 75//111 77//111
f 79//112 80//112 82//112 81//112
f 81//113 82//113 84//113 83//113
f 83//114 84//114 86//114 85//114
f 85//115 86//115 88//115 87//115
f 82//116 80//116 90//116 88//116 86//116 84//116
f 87//117 88//117 90//117 89//117
f 89//118 90//118 80//118 79//118
f 79//119 81//119 83//119 85//119 87//119 89//119
usemtl Material.004
f 94//120 99//120 91//120
f 94//121 91//121 97//121
f 91//122 99//122 92//122
f 96//123 101//123 102//123
f 95//124 102//124 103//124
f 91//125 92//125 105//125
f 100//126 105//126 101//126
f 103//127 107//127 93//127
f 92//128 103//128 93//128
f 105//129 92//129 93//129
f 108//130 106//130 93//130
f 106//131 105//131 93//131
f 107//132 108//132 93//132
f 101//133 105//133 106//133
f 104//134 103//134 92//134
f 103//135 102//135 107//135
f 102//136 108//136 107//136
f 102//137 101//137 108//137
f 101//138 106//138 108//138
f 100//139 91//139 105//139
f 92//140 99//140 104//140
f 99//141 98//141 104//141
f 104//142 98//142 103//142
f 98//143 95//143 103//143
f 95//144 96//144 102//144
f 96//145 100//145 101//145
f 97//146 91//146 100//146
f 99//147 94//147 98//147
f 94//148 95//148 98//148
f 96//149 97//149 100//149
f 94//150 97//150 95//150
f 97//151 96//151 95//151
usemtl Material.005
f 112//152 117//152 109//152
f 112//153 109//153 115//153
f 109//154 117//154 110//154
f 114//155 119//155 120//155
f 113//156 120//156 121//156
f 109//157 110//157 123//157
f 118//158 123//158 119//158
f 121//159 125//159 111//159
f 110//160 121//160 111//160
f 123//161 110//161 111//161
f 126//162 124//162 111//162
f 124//163 123//163 111//163
f 125//164 126//164 111//164
f 119//165 123//165 124//165
f 122//166 121//166 110//166
f 121//167 120//167 125//167
f 120//168 126//168 125//168
f 120//169 119//169 126//169
f 119//170 124//170 126//170
f 118//171 109//171 123//171
f 110//172 117//172 122//172
f 117//173 116//173 122//173
f 122//174 116//174 121//174
f 116//175 113//175 121//175
f 113//176 114//176 120//176
f 114//177 118//177 119//177
f 115//178 109//178 118//178
f 117//179 112//179 116//179
f 112//180 113//180 116//180
f 114//181 115//181 118//181
f 112//182 115//182 113//182
f 115//183 114//183 113//183
